<svg width="181" height="180" viewBox="0 0 181 180" fill="none" xmlns="http://www.w3.org/2000/svg">
<path d="M169.945 131.93L81.4709 109.037L76.1645 112.108L74.2349 110.996V29.2432L38.2997 49.9864V131.739V133.964L33.3209 136.844L29.1377 152.19C41.7557 162.825 59.9141 171.206 83.8109 172.998C114.256 175.281 140.453 166.223 154.346 154.174C161.157 148.266 166.341 140.595 169.945 131.93Z" fill="#EF4444"/>
<path opacity="0.15" d="M169.945 131.93L81.4709 109.037L76.1645 112.108L74.2349 110.996V29.2432L38.2997 49.9864V131.739V133.964L33.3209 136.844L29.1377 152.19C41.7557 162.825 59.9141 171.206 83.8109 172.998C114.256 175.281 140.453 166.223 154.346 154.174C161.157 148.266 166.341 140.595 169.945 131.93Z" fill="white"/>
<path d="M33.3281 136.836L38.3069 133.963V49.9859L76.1645 28.1303V112.107L81.4745 109.037V18.3887L33.3281 46.1879V136.836Z" fill="#455A64"/>
<path d="M76.164 112.108L74.2344 110.996V29.2433L76.164 28.1309V112.108Z" fill="#37474F"/>
<path d="M33.328 136.836L31.402 135.72L31.3984 45.0752L33.328 46.1876V136.836Z" fill="#37474F"/>
<path d="M81.4744 18.3888L79.5448 17.2764L31.3984 45.0756L33.328 46.188L81.4744 18.3888Z" fill="#37474F"/>
<path d="M42.012 31.8419L42.84 32.3171L64.5804 19.7639V5.81389L63.7524 5.33869C63.5128 5.21809 63.2484 5.15527 62.9802 5.15527C62.712 5.15527 62.4475 5.21809 62.208 5.33869L42.0084 17.0027C41.7833 17.1486 41.5958 17.3456 41.4613 17.5777C41.3268 17.8098 41.2491 18.0704 41.2344 18.3383V30.5027C41.25 30.7712 41.3286 31.0323 41.4636 31.2649C41.5987 31.4975 41.7865 31.6952 42.012 31.8419Z" fill="#37474F"/>
<path d="M43.6135 31.8705L63.8095 20.2101C64.034 20.063 64.2208 19.8652 64.3546 19.6325C64.4884 19.3998 64.5656 19.139 64.5799 18.8709V6.70653C64.5799 6.21333 64.2199 6.01533 63.8059 6.26013L43.6099 17.9205C43.3848 18.0672 43.1973 18.2649 43.0629 18.4976C42.9284 18.7303 42.8506 18.9914 42.8359 19.2597V31.4241C42.8395 31.9173 43.1851 32.1153 43.6135 31.8705Z" fill="#455A64"/>
<path d="M49.4387 24.1634C49.4579 24.1459 49.4829 24.1362 49.5089 24.1362C49.5348 24.1362 49.5599 24.1459 49.5791 24.1634C49.6016 24.188 49.6187 24.217 49.6292 24.2486C49.6398 24.2803 49.6435 24.3138 49.6403 24.347V25.5602C49.6389 25.6488 49.618 25.7361 49.5791 25.8158C49.5501 25.8858 49.5013 25.9459 49.4387 25.9886L45.8963 28.0334C45.8762 28.0504 45.8506 28.0597 45.8243 28.0597C45.7979 28.0597 45.7724 28.0504 45.7523 28.0334C45.7305 28.0083 45.7139 27.9792 45.7034 27.9477C45.6929 27.9162 45.6887 27.8829 45.6911 27.8498V20.4194C45.6926 20.3319 45.7135 20.2458 45.7523 20.1674C45.7792 20.095 45.83 20.0341 45.8963 19.9946L49.3775 18.0002C49.3973 17.9824 49.4229 17.9727 49.4495 17.9727C49.4761 17.9727 49.5017 17.9824 49.5215 18.0002C49.5434 18.0251 49.5598 18.0542 49.5697 18.0859C49.5796 18.1175 49.5828 18.1508 49.5791 18.1838V19.4042C49.579 19.4914 49.5593 19.5775 49.5215 19.6562C49.4932 19.7277 49.4427 19.7882 49.3775 19.829L47.0771 21.161V22.403L49.2119 21.1682C49.2317 21.1504 49.2573 21.1407 49.2839 21.1407C49.3105 21.1407 49.3361 21.1504 49.3559 21.1682C49.378 21.193 49.3949 21.2221 49.4054 21.2537C49.4159 21.2852 49.4199 21.3186 49.4171 21.3518V22.5722C49.4156 22.6597 49.3947 22.7457 49.3559 22.8242C49.3282 22.897 49.2777 22.9589 49.2119 23.0006L47.0771 24.2318V25.5242L49.4387 24.1634Z" fill="#EF4444"/>
<path d="M52.621 21.8263L51.6634 24.4507C51.636 24.5342 51.6036 24.616 51.5662 24.6955C51.5172 24.7803 51.4447 24.849 51.3574 24.8935L50.2234 25.5595C50.208 25.5745 50.1873 25.5828 50.1658 25.5828C50.1443 25.5828 50.1237 25.5745 50.1082 25.5595C50.0896 25.5393 50.0755 25.5154 50.0668 25.4893C50.0581 25.4633 50.0551 25.4357 50.0578 25.4083C50.0562 25.3904 50.0562 25.3723 50.0578 25.3543L50.0758 25.2715L51.8038 20.5555L50.1514 17.9311C50.1374 17.8943 50.13 17.8553 50.1298 17.8159C50.1298 17.7449 50.1458 17.6747 50.1766 17.6107C50.2012 17.5521 50.2426 17.502 50.2954 17.4667L51.4222 16.8151C51.523 16.7575 51.595 16.7575 51.6382 16.8151C51.6729 16.8516 51.7053 16.89 51.7354 16.9303L52.6426 18.3523L53.5174 15.9043C53.5354 15.8539 53.5678 15.7783 53.611 15.6739C53.6568 15.5723 53.7337 15.4878 53.8306 15.4327L54.9754 14.7595C54.9924 14.7464 55.0133 14.7393 55.0348 14.7393C55.0563 14.7393 55.0772 14.7464 55.0942 14.7595C55.1116 14.7804 55.1248 14.8045 55.1328 14.8304C55.1408 14.8564 55.1436 14.8837 55.141 14.9107C55.1396 14.9582 55.1323 15.0054 55.1194 15.0511L53.4598 19.6339L55.1698 22.3195C55.1792 22.3403 55.1864 22.362 55.1914 22.3843C55.1914 22.4023 55.1914 22.4167 55.1914 22.4347C55.1901 22.506 55.1729 22.5761 55.141 22.6399C55.1175 22.6972 55.0774 22.7461 55.0258 22.7803L53.8882 23.4391C53.791 23.4967 53.7226 23.5075 53.683 23.4751C53.6422 23.4394 53.6081 23.3968 53.5822 23.3491L52.621 21.8263Z" fill="#EF4444"/>
<path d="M56.0162 22.2049C55.997 22.2223 55.972 22.232 55.946 22.232C55.9201 22.232 55.895 22.2223 55.8758 22.2049C55.8533 22.1803 55.8362 22.1512 55.8257 22.1196C55.8151 22.088 55.8114 22.0545 55.8146 22.0213V14.5765C55.8161 14.489 55.837 14.4029 55.8758 14.3245C55.9038 14.2529 55.9527 14.1914 56.0162 14.1481L56.9954 13.5829C57.0158 13.5665 57.0412 13.5576 57.0674 13.5576C57.0936 13.5576 57.119 13.5665 57.1394 13.5829C57.1607 13.6081 57.1768 13.6374 57.1867 13.6689C57.1966 13.7004 57.2001 13.7336 57.197 13.7665V21.2113C57.197 21.2997 57.1773 21.387 57.1394 21.4669C57.1081 21.5366 57.0583 21.5963 56.9954 21.6397L56.0162 22.2049Z" fill="#EF4444"/>
<path d="M62.0854 10.6447C62.1052 10.627 62.1308 10.6172 62.1574 10.6172C62.1839 10.6172 62.2096 10.627 62.2294 10.6447C62.2512 10.6696 62.2677 10.6988 62.2776 10.7304C62.2875 10.762 62.2907 10.7954 62.287 10.8283V12.0595C62.2869 12.1467 62.2672 12.2329 62.2294 12.3115C62.2011 12.383 62.1506 12.4435 62.0854 12.4843L60.7714 13.2439V19.1479C60.77 19.2365 60.7491 19.3238 60.7102 19.4035C60.6812 19.4735 60.6324 19.5336 60.5698 19.5763L59.5906 20.1595C59.5708 20.1772 59.5451 20.187 59.5186 20.187C59.492 20.187 59.4664 20.1772 59.4466 20.1595C59.4247 20.1346 59.4083 20.1054 59.3984 20.0738C59.3884 20.0422 59.3852 20.0088 59.389 19.9759V14.0395L58.0714 14.7991C58.0522 14.8165 58.0271 14.8262 58.0012 14.8262C57.9752 14.8262 57.9502 14.8165 57.931 14.7991C57.9079 14.7749 57.8904 14.7459 57.8798 14.7141C57.8692 14.6824 57.8658 14.6487 57.8698 14.6155V13.3879C57.8698 13.3002 57.8908 13.2138 57.931 13.1359C57.9583 13.0649 58.0075 13.0044 58.0714 12.9631L62.0854 10.6447Z" fill="#EF4444"/>
<path opacity="0.5" d="M139.661 33.3535V49.5643L132.004 37.0363L139.661 33.3535Z" fill="#EF4444"/>
<path opacity="0.35" d="M144.766 36.2988V52.5096L137.108 39.9852L144.766 36.2988Z" fill="#EF4444"/>
<path opacity="0.25" d="M149.871 39.2471V55.4579L142.214 42.9299L149.871 39.2471Z" fill="#EF4444"/>
<path opacity="0.5" d="M11.0801 106.384L25.1201 98.2803L18.1001 111.175L11.0801 106.384Z" fill="#EF4444"/>
<path opacity="0.35" d="M11.0801 100.49L25.1201 92.3867L18.1001 105.278L11.0801 100.49Z" fill="#EF4444"/>
<path opacity="0.25" d="M11.0801 94.5974L25.1201 86.4902L18.1001 99.3854L11.0801 94.5974Z" fill="#EF4444"/>
<path opacity="0.2" d="M115.426 142.363C107.236 140.563 102.776 136.916 102.776 136.916C99.5787 136.509 97.3755 139.897 100.205 143.9C102.174 146.679 114.44 161.443 121.596 169.946C135.338 166.515 146.703 160.798 154.356 154.174C155.418 153.253 156.437 152.281 157.42 151.276C142.649 148.425 115.426 142.363 115.426 142.363Z" fill="black"/>
<path d="M117.46 131.725L112.639 141.038C112.639 141.038 109.55 140.98 108.258 139.4C106.062 136.714 107.135 135.033 107.426 135.199C108.168 135.624 109.183 135.807 109.417 135.055C109.651 134.302 109.964 133.316 110.292 132.146C110.717 130.63 117.46 131.725 117.46 131.725Z" fill="#FFA8A7"/>
<path d="M100.58 133.803C100.094 134.26 100.09 135.65 100.436 136.683C100.781 137.716 101.746 138.947 103.215 139.844C104.59 140.682 105.735 141.053 106.401 141.809C107.067 142.565 107.481 144.045 109.486 144.574C111.491 145.103 112.125 144.002 112.503 143.346L100.58 133.803Z" fill="#37474F"/>
<path d="M113.943 138.522L113.611 139.159C112.596 140.203 110.731 139.897 110.094 139.285C109.457 138.673 109.227 137.845 108.694 137.546C108.161 137.247 106.829 136.956 107.664 136.952C108.499 136.948 108.561 136.952 108.723 136.502C108.88 136.044 109.093 135.606 109.356 135.199C108.996 134.968 108.413 135.199 107.855 135.001C107.297 134.803 105.879 133.744 104.446 132.931C103.92 132.551 103.371 132.206 102.801 131.898C101.789 131.538 100.576 132.542 100.378 133.338C100.083 134.529 100.097 135.649 101.26 137.449C102.423 139.249 105.371 140.25 106.213 140.901C107.056 141.553 106.998 142.114 108.467 143.328C110.091 144.663 112.186 143.972 112.726 143.072C113.313 142.093 113.471 141.322 113.878 140.383C114.285 139.443 114.295 138.993 113.943 138.522Z" fill="#455A64"/>
<path d="M106.135 137.288C106.279 136.766 106.725 135.254 107.784 134.973L107.942 135.03C107.942 135.03 107.967 134.879 107.658 134.75C107.348 134.62 106.869 134.645 106.315 135.387C105.936 135.887 105.689 136.473 105.595 137.093C105.588 137.277 105.98 137.421 106.135 137.288Z" fill="#37474F"/>
<path d="M104.5 136.416C104.676 135.905 105.414 134.433 106.483 134.217L106.635 134.296C106.635 134.296 106.635 134.159 106.339 134.011C106.044 133.864 105.529 133.911 104.935 134.616C104.515 135.073 104.189 135.607 103.974 136.189C103.956 136.373 104.323 136.539 104.5 136.416Z" fill="#37474F"/>
<path d="M103.009 135.491C103.204 134.987 103.996 133.471 105.076 133.302L105.194 133.374C105.194 133.374 105.227 133.255 104.932 133.097C104.636 132.938 104.212 132.82 103.592 133.504C103.121 134.01 102.749 134.6 102.494 135.242C102.469 135.426 102.826 135.606 103.009 135.491Z" fill="#37474F"/>
<path d="M130.697 86.6787C132.044 88.8639 133.642 92.0499 133.646 95.5995C133.646 98.7207 132.605 101.165 130.182 103.916C129.671 104.715 123.555 116.328 123.555 116.328C123.312 119.238 122.571 122.084 121.362 124.742C119.462 128.702 115.275 136.035 115.275 136.035C115.275 136.035 114.249 137.018 111.675 135.884C109.77 135.045 110.062 133.022 110.062 133.022C110.062 133.022 113.208 117.833 113.957 114.302C114.706 110.77 115.617 107.894 117.42 102.494C119.465 96.3735 121.46 91.0887 121.46 91.0887L130.697 86.6787Z" fill="#37474F"/>
<path d="M112.356 135.599L112.014 135.455C112.676 133.773 113.515 131.855 114.328 129.975C116.218 125.623 118.177 121.123 118.227 119.1C118.299 116.141 123.876 103.785 124.113 103.26L124.448 103.422C124.39 103.551 118.666 116.231 118.598 119.107C118.548 121.209 116.571 125.745 114.663 130.134C113.853 131.999 113.018 133.921 112.356 135.599Z" fill="#455A64"/>
<path d="M109.684 133.791C109.684 133.791 109.598 135.469 111.675 136.391C114.112 137.471 115.275 136.139 115.275 136.139L116.459 133.939C115.382 134.373 114.194 134.454 113.068 134.169C111.124 133.626 110.314 131.455 110.314 131.455L109.684 133.791Z" fill="#455A64"/>
<path opacity="0.2" d="M123.551 116.385L117.093 113.109C117.093 113.109 115.552 120.209 113.788 126.771C112.024 133.334 111.25 136.38 110.314 137.931C109.378 139.483 109.321 140.293 107.557 139.893C105.793 139.494 101.591 137.823 100.439 136.671C100.799 137.705 101.75 138.936 103.219 139.832C104.594 140.671 105.739 141.042 106.405 141.798C107.071 142.554 107.485 144.033 109.49 144.563C111.495 145.092 112.129 143.99 112.507 143.335C112.592 143.254 112.667 143.162 112.73 143.061C113.317 142.082 113.475 141.312 113.882 140.372C114.289 139.433 114.299 138.979 113.947 138.507L113.615 139.145L115.095 136.286C115.163 136.238 115.226 136.182 115.282 136.121L116.467 133.921C117.849 131.455 120.11 127.355 121.37 124.723C122.567 122.088 123.305 119.269 123.551 116.385Z" fill="black"/>
<path opacity="0.6" d="M121.917 90.8799L121.46 91.0995C121.46 91.0995 119.465 96.3879 117.42 102.504C115.62 107.904 114.706 110.784 113.957 114.312C113.349 117.171 111.167 127.701 110.357 131.592C110.337 131.554 110.321 131.514 110.307 131.473L109.677 133.81C109.677 133.917 109.685 134.024 109.702 134.13C109.598 134.49 109.497 134.789 109.41 135.073C109.394 135.124 109.372 135.172 109.346 135.217C108.986 134.998 108.467 135.199 107.934 135.045C107.934 135.045 107.934 134.89 107.65 134.767C107.529 134.717 107.398 134.699 107.268 134.713C107.078 134.602 106.862 134.461 106.628 134.314C106.628 134.314 106.628 134.177 106.332 134.029C106.256 133.994 106.175 133.972 106.091 133.965L105.188 133.392C105.188 133.392 105.22 133.273 104.925 133.115C104.801 133.044 104.661 133.003 104.518 132.996L104.439 132.949C103.913 132.57 103.364 132.225 102.794 131.916C101.782 131.556 100.569 132.561 100.371 133.356C100.167 134.09 100.167 134.865 100.371 135.599C100.011 132.719 102.225 131.819 102.956 132.359C103.686 132.899 106.88 135.264 107.945 135.491C108.345 135.577 108.665 135.473 109.025 135.75C109.497 135.826 109.745 135.772 110.105 134.544C110.66 132.481 112.665 123.499 113.54 118.873C114.308 114.872 115.318 110.92 116.564 107.04C117.258 104.967 120.419 95.4015 121.917 90.8799Z" fill="#FAFAFA"/>
<path d="M137.3 125.857C137.3 125.857 141.072 130.764 141.71 131.347C142.283 131.799 142.92 132.163 143.6 132.427L140.298 138.187L132.454 131.279L137.3 125.857Z" fill="#FFA8A7"/>
<path d="M113.475 92.921C113.748 95.3798 116.074 108.279 117.01 112.721C117.805 116.476 118.338 120.083 120.419 121.905C123.213 124.349 124.829 125.649 129.113 129.105C133.761 132.852 135.445 134.249 135.445 134.249C135.726 132.69 137.587 128.381 139.258 128.316C137.497 125.699 134.041 121.145 132.36 119.032C131.294 117.676 129.951 116.561 128.422 115.763L128.062 103.523C128.062 103.523 130.42 100.283 130.459 96.683C130.499 92.9822 129.401 90.0446 127.781 88.043L113.475 92.921Z" fill="#455A64"/>
<path d="M126.741 99.7C126.075 99.7 122.939 99.1384 122.497 98.6776C122.227 98.3968 121.852 97.1404 121.269 95.11C120.992 94.156 120.707 93.1696 120.441 92.3632L120.38 92.1616L127.418 89.8936L127.483 90.0592C127.555 90.2536 129.283 94.8112 129.038 96.8776C128.944 97.6516 127.385 99.6172 126.813 99.682L126.741 99.7ZM120.855 92.4244C121.103 93.202 121.366 94.1164 121.622 95.002C122.054 96.4924 122.54 98.1808 122.759 98.404C123.073 98.728 126.316 99.3724 126.773 99.3148C127.09 99.2788 128.573 97.5364 128.667 96.8452C128.879 95.0884 127.508 91.2292 127.198 90.3652L120.855 92.4244Z" fill="#37474F"/>
<path d="M135.265 132.345C135.204 132.291 129.145 127.067 125.844 124.101L125.002 123.348C122.179 120.817 120.739 119.547 120.224 117.361C119.648 114.863 116.732 100.632 115.343 91.8014L115.703 91.7402C117.089 100.553 120.001 114.78 120.581 117.261C121.06 119.341 122.456 120.587 125.236 123.064L126.082 123.816C129.39 126.779 135.442 132.003 135.496 132.057L135.265 132.345Z" fill="#37474F"/>
<path d="M145.817 132.481C144.259 132.081 143.135 131.837 142.66 131.509C142.185 131.181 140.86 131.768 139.985 133.262C139.366 134.306 139.399 135.782 139.561 136.142C139.723 136.502 140.198 137.507 140.281 137.798C140.171 137.574 140.017 137.375 139.826 137.214C139.636 137.053 139.414 136.933 139.175 136.862C138.995 136.823 138.952 137.377 139.125 137.582C139.699 138.165 140.132 138.872 140.389 139.649C140.875 140.97 141.037 141.683 141.238 143.706C141.411 145.463 141.577 147.551 143.852 148.368L145.817 132.481Z" fill="#455A64"/>
<path d="M144.518 148.609C143.484 148.4 143.042 147.94 142.84 146.78C142.638 145.621 142.84 144.015 142.959 143.051C143.072 142.031 142.99 140.998 142.718 140.009C142.433 138.781 142.142 136.913 142.966 135.203C143.79 133.493 144.939 132.341 145.817 132.488C146.134 132.502 146.436 132.63 146.667 132.848L144.518 148.609Z" fill="#37474F"/>
<path d="M146.008 132.777C145.268 133.195 144.636 133.783 144.166 134.492C143.695 135.2 143.399 136.01 143.301 136.855C143.013 138.99 143.747 141.175 143.603 142.975C143.459 144.775 142.973 146.766 143.963 148.206C144.953 149.646 146.696 147.27 147.484 144.736C148.273 142.201 146.365 140.549 146.897 137.813C147.43 135.077 147.164 132.139 146.008 132.777Z" fill="black"/>
<path d="M133.426 132.665L135.687 134.497C135.687 134.497 136.547 132.154 137.937 130.869C139.553 129.375 140.323 129.702 140.323 129.702L138.739 127.488C138.09 127.494 137.449 127.641 136.863 127.92C136.276 128.2 135.758 128.604 135.345 129.105C134.462 130.144 133.809 131.357 133.426 132.665Z" fill="#37474F"/>
<path d="M121.053 63.3079C120.61 63.0146 120.255 62.6073 120.024 62.129C119.794 61.6506 119.697 61.1189 119.743 60.5899C119.88 59.5387 120.776 56.9287 120.376 54.0811C119.977 51.2335 115.3 47.7091 112.114 48.7243C108.928 49.7395 107.046 51.9643 106.675 54.5707C106.448 56.1655 107.056 56.3419 107.035 57.2383C106.977 59.0023 106.938 61.8463 108.093 63.4771C108.378 63.9055 108.764 64.2569 109.218 64.5C109.671 64.7431 110.178 64.8703 110.692 64.8703C111.587 64.8302 112.475 64.6901 113.338 64.4527C113.491 64.9427 113.6 65.4449 113.666 65.9539C113.689 66.6188 113.476 67.2703 113.065 67.7935C113.065 67.7935 121.852 63.7399 121.053 63.3079Z" fill="#FFA8A7"/>
<path d="M111.038 57.2416C111.032 57.3458 111.056 57.4497 111.108 57.5402C111.16 57.6308 111.238 57.704 111.331 57.7509C111.424 57.7977 111.529 57.8161 111.633 57.8038C111.737 57.7914 111.834 57.7488 111.914 57.6814C111.994 57.6139 112.052 57.5244 112.081 57.4242C112.111 57.3239 112.11 57.2173 112.079 57.1175C112.048 57.0177 111.989 56.9292 111.908 56.8629C111.827 56.7966 111.729 56.7556 111.625 56.7448C111.481 56.7338 111.339 56.7798 111.23 56.8727C111.12 56.9657 111.051 57.0982 111.038 57.2416Z" fill="#263238"/>
<path d="M111.132 55.1675L112.413 55.3727C112.437 55.1987 112.392 55.0223 112.289 54.8803C112.186 54.7382 112.032 54.6413 111.859 54.6095C111.774 54.5969 111.688 54.6014 111.605 54.6228C111.523 54.6443 111.445 54.6821 111.377 54.7342C111.309 54.7863 111.252 54.8515 111.21 54.9259C111.168 55.0004 111.142 55.0825 111.132 55.1675Z" fill="#263238"/>
<path d="M106.7 56.1616L107.78 55.4416C107.737 55.368 107.68 55.3038 107.611 55.2531C107.543 55.2024 107.465 55.1661 107.382 55.1466C107.299 55.1271 107.213 55.1246 107.129 55.1394C107.045 55.1543 106.965 55.186 106.894 55.2328C106.749 55.3335 106.648 55.4859 106.612 55.6586C106.576 55.8312 106.607 56.0112 106.7 56.1616Z" fill="#263238"/>
<path d="M107.297 57.6448C107.322 57.7379 107.373 57.8217 107.445 57.8858C107.517 57.9498 107.607 57.9911 107.702 58.0046C107.797 58.0181 107.895 58.0032 107.982 57.9617C108.069 57.9203 108.141 57.854 108.191 57.7714C108.24 57.6888 108.264 57.5933 108.26 57.4971C108.255 57.4009 108.223 57.3081 108.166 57.2304C108.109 57.1527 108.03 57.0936 107.94 57.0603C107.849 57.0271 107.751 57.0213 107.657 57.0436C107.531 57.0775 107.423 57.1592 107.356 57.2714C107.289 57.3836 107.268 57.5175 107.297 57.6448Z" fill="#263238"/>
<path d="M107.55 59.8913L109.53 60.5249L109.706 56.7557C108.979 56.5829 108.259 58.3829 107.55 59.8913Z" fill="#F28F8F"/>
<path d="M112.1 61.4285C112.1 61.5298 112.071 61.6289 112.015 61.7135C111.959 61.798 111.88 61.8641 111.786 61.9033C111.693 61.9426 111.59 61.9532 111.491 61.9339C111.391 61.9146 111.3 61.8662 111.228 61.7948C111.156 61.7235 111.107 61.6324 111.087 61.5332C111.067 61.4339 111.077 61.3309 111.116 61.2373C111.154 61.1437 111.22 61.0636 111.304 61.0073C111.388 60.951 111.487 60.9209 111.588 60.9209C111.723 60.9209 111.853 60.9743 111.949 61.0694C112.044 61.1644 112.099 61.2935 112.1 61.4285Z" fill="#B16668"/>
<path d="M113.335 64.4413C113.335 64.4413 114.584 64.0345 115.023 63.6457C116.215 62.5909 116.283 61.7197 116.409 60.8125C116.409 61.8205 116.571 63.1849 115.373 64.1389C114.803 64.5482 114.174 64.8676 113.508 65.0857L113.335 64.4413Z" fill="#F28F8F"/>
<path d="M116.608 59.1423C116.694 59.6679 117.072 60.6435 117.688 60.9207C118.343 61.1807 119.073 61.1807 119.729 60.9207C119.801 60.4131 120.089 59.0919 120.377 57.9543C120.665 56.8167 121.277 53.0727 119.509 51.6795C119.66 50.0019 118.39 49.0047 116.806 48.3207C115.474 47.7447 113.13 47.8707 111.348 48.5475C107.14 50.1387 106.146 48.8211 105.588 49.2675C105.03 49.7139 105.779 51.1143 106.362 51.4527C105.642 51.4527 105.224 51.9099 105.746 52.6803C106.268 53.4507 107.323 53.8323 108.925 53.7603C111.73 53.6199 113.015 52.5579 113.63 52.1295C113.486 52.7916 113.419 53.468 113.429 54.1455C113.445 54.4445 113.528 54.7361 113.67 54.9994C113.813 55.2627 114.012 55.4912 114.253 55.6683C114.653 55.9131 114.354 56.8527 114.498 57.1911C114.642 57.5295 115.218 58.1307 115.578 56.6547C115.938 55.1787 117.338 54.8547 118.044 55.4055C118.75 55.9563 118.872 56.6583 118.58 57.9759C118.354 58.9947 117.346 59.6031 116.608 59.1423Z" fill="#263238"/>
<path d="M140.083 80.7455C140.083 80.7455 143.906 84.2807 144.219 84.6407C144.45 84.9035 145.591 85.8935 145.299 86.3903C145.209 86.5451 144.939 86.5451 144.799 86.8331C144.607 87.3479 144.529 87.898 144.569 88.4459C144.605 88.6064 144.698 88.7486 144.83 88.8469C144.962 88.9452 145.124 88.9932 145.289 88.9823C145.334 89.1597 145.444 89.3144 145.595 89.4171C145.747 89.5199 145.931 89.5637 146.113 89.5403C146.149 89.7605 146.266 89.9593 146.441 90.0983C146.646 90.2385 146.891 90.3081 147.139 90.2963C147.287 90.6347 147.884 90.7031 148.424 90.4727C148.944 90.2089 149.414 89.8568 149.814 89.4323C150.043 89.197 150.172 88.8822 150.174 88.5539C150.175 87.909 150.138 87.2647 150.062 86.6243C149.961 85.6667 149.497 84.7631 148.982 83.6543C148.309 82.2683 144.093 77.2715 144.093 77.2715L140.083 80.7455Z" fill="#FFA8A7"/>
<path d="M147.143 90.2965C146.988 89.8429 146.783 88.9321 146.927 88.6441C147.218 88.2467 147.561 87.8896 147.946 87.5821C148.054 87.5101 148.28 87.6397 148.374 87.9169C148.468 88.1941 148.266 88.6081 148.147 88.8493L148.244 89.2093C148.145 89.3958 148.102 89.6073 148.122 89.8177C148.208 89.2849 148.925 88.7773 149.202 88.8385C148.993 88.7533 148.763 88.7357 148.543 88.7881L148.435 88.5145C148.435 88.5145 148.676 87.8413 148.388 87.5497C148.1 87.2581 148.007 87.1897 147.668 87.5497C147.33 87.9097 146.819 88.4065 146.747 88.6837C146.675 88.9609 147.143 90.2965 147.143 90.2965Z" fill="#F28F8F"/>
<path d="M148.576 86.041C148.05 86.707 148.432 87.7438 148.432 87.7438C148.32 87.6269 148.235 87.4877 148.181 87.3353C148.127 87.183 148.107 87.021 148.12 86.86C148.134 86.699 148.182 86.5428 148.26 86.4016C148.339 86.2604 148.446 86.1375 148.576 86.041Z" fill="#F28F8F"/>
<path d="M146.116 89.5406C145.956 89.2045 145.896 88.8297 145.943 88.4606C145.963 88.3643 146.004 88.2734 146.062 88.1942L146.224 87.9746C146.336 87.8306 146.451 87.6938 146.566 87.557L146.926 87.1538C147.045 87.0125 147.186 86.891 147.344 86.7938C147.435 86.7456 147.539 86.7255 147.642 86.7362C147.694 86.7425 147.744 86.7612 147.787 86.7906C147.83 86.8201 147.866 86.8594 147.891 86.9054C147.973 87.0716 148.008 87.2572 147.992 87.4418C147.972 87.2687 147.913 87.1024 147.819 86.9558C147.795 86.9258 147.765 86.9009 147.732 86.8828C147.698 86.8646 147.661 86.8535 147.623 86.8501C147.585 86.8467 147.547 86.8512 147.51 86.8632C147.474 86.8751 147.441 86.8944 147.412 86.9198C147.278 87.0252 147.157 87.146 147.052 87.2798L146.692 87.683L146.332 88.0898C146.213 88.2102 146.118 88.3519 146.051 88.5074C146 88.8525 146.022 89.2046 146.116 89.5406Z" fill="#F28F8F"/>
<path d="M145.292 88.983C145.166 88.6372 145.106 88.2708 145.115 87.903C145.137 87.7037 145.229 87.5186 145.374 87.381C145.504 87.2514 145.641 87.1326 145.778 87.021L146.195 86.661L146.411 86.4954L146.519 86.4126C146.562 86.3793 146.609 86.3526 146.66 86.3334C146.717 86.3216 146.776 86.3266 146.83 86.3476C146.884 86.3687 146.931 86.405 146.966 86.4522C147.028 86.5307 147.067 86.6257 147.077 86.7258C147.092 86.9138 147.047 87.1017 146.948 87.2622C147.009 87.0952 147.022 86.9145 146.987 86.7402C146.962 86.5818 146.811 86.427 146.703 86.4666C146.671 86.4858 146.642 86.5088 146.616 86.535L146.516 86.6214L146.31 86.7978L145.9 87.1578C145.76 87.273 145.626 87.3918 145.493 87.5178C145.369 87.6257 145.285 87.7731 145.256 87.9354C145.226 88.2848 145.238 88.6364 145.292 88.983Z" fill="#F28F8F"/>
<path d="M146.365 86.6386C146.416 86.4744 146.416 86.2988 146.365 86.1346C146.356 86.0995 146.34 86.0666 146.318 86.038C146.296 86.0095 146.267 85.986 146.236 85.969C146.203 85.9594 146.168 85.9576 146.134 85.9639C146.1 85.9701 146.068 85.9842 146.041 86.005C145.747 86.1856 145.462 86.3815 145.188 86.5918C145.052 86.6948 144.931 86.8159 144.828 86.9518C144.752 87.096 144.706 87.2539 144.691 87.4162C144.637 87.7582 144.608 88.111 144.562 88.4602C144.529 88.1084 144.522 87.7545 144.543 87.4018C144.545 87.2127 144.591 87.0266 144.677 86.8582C144.783 86.7067 144.913 86.573 145.062 86.4622C145.346 86.2463 145.648 86.056 145.966 85.8934C146.014 85.8703 146.067 85.8584 146.12 85.8584C146.174 85.8584 146.227 85.8703 146.275 85.8934C146.319 85.9205 146.356 85.9568 146.385 85.9996C146.413 86.0425 146.432 86.0909 146.441 86.1418C146.47 86.3112 146.443 86.4854 146.365 86.6386Z" fill="#F28F8F"/>
<path d="M144.615 85.0439C145.018 85.5047 144.687 86.0087 144.572 86.5595C144.456 87.1103 144.41 87.3191 144.662 87.6863C144.914 88.0535 145.655 88.7879 145.821 88.9823C145.986 89.1767 146.616 88.6835 146.249 87.8159C146.098 87.4559 145.605 87.0959 145.5 86.6063C145.465 86.2998 145.369 86.0034 145.217 85.735C145.065 85.4666 144.86 85.2315 144.615 85.0439Z" fill="#FFA8A7"/>
<path d="M144.572 86.5596C144.522 86.7961 144.509 87.039 144.533 87.2796C144.598 87.5058 144.723 87.7107 144.893 87.8736C145.213 88.2336 145.577 88.5936 145.894 88.9248C145.894 88.95 146.03 88.9248 146.095 88.8312C146.168 88.7512 146.219 88.6548 146.246 88.5504C146.297 88.3257 146.278 88.091 146.192 87.8772C146.092 87.6601 145.963 87.4578 145.807 87.276C145.654 87.0794 145.548 86.8503 145.498 86.6064C145.642 87.0924 146.095 87.348 146.326 87.8232C146.437 88.0638 146.467 88.3342 146.412 88.5936C146.38 88.727 146.315 88.8505 146.225 88.9536C146.176 89.0094 146.116 89.0547 146.048 89.0868C146.008 89.1105 145.962 89.123 145.915 89.123C145.868 89.123 145.822 89.1105 145.782 89.0868C145.422 88.7052 145.098 88.3668 144.785 87.9816C144.606 87.7936 144.482 87.5611 144.425 87.3084C144.427 87.0518 144.477 86.7979 144.572 86.5596Z" fill="#F28F8F"/>
<path d="M124.743 62.8723C127.436 62.4043 128.703 63.6859 130.726 65.2087C132.75 66.7315 138.571 71.5771 139.784 72.4843C140.997 73.3915 141.278 73.7119 142.786 75.5299C144.295 77.3479 144.586 77.7835 144.586 77.7835C144.586 77.7835 143.298 80.7859 140.31 81.1351L136.9 78.1219L127.839 74.0935L124.743 62.8723Z" fill="#F0F0F0"/>
<path d="M124.744 62.8721C121.763 62.8721 117.238 64.5785 113.429 67.5161C111.629 68.9021 109.285 70.3961 109.13 70.7345C108.886 72.1061 109.49 73.9025 109.768 75.9473C110.488 81.1601 111.449 84.5081 112.201 87.8273C113.317 92.7629 113.548 93.4865 113.548 93.4865C113.548 93.4865 123.584 93.6053 127.523 90.6929C131.461 87.7805 130.792 86.2613 130.475 84.6269C129.72 81.199 129.358 77.6966 129.395 74.1869C129.503 69.3161 128.362 62.8721 124.744 62.8721Z" fill="#FAFAFA"/>
<path d="M112.586 68.1459C113.788 66.5043 113.328 66.5259 114.123 65.5359C115.113 64.3047 120.016 62.1087 120.524 62.4471C121.076 62.8301 121.712 63.0768 122.378 63.1671C122.378 63.1671 122.299 64.0239 119.3 65.4423C116.438 66.7887 115.228 66.9327 112.586 68.1459Z" fill="#F0F0F0"/>
<path d="M100.051 84.0469C100.051 84.0469 94.8092 81.6457 94.3952 81.4081C93.7148 81.0193 93.6392 80.8177 93.6752 80.2705C93.7112 79.7233 93.83 79.2121 93.5312 78.6397C93.2324 78.0673 92.7752 77.4553 92.4188 77.3833C92.1673 77.3422 91.9107 77.3422 91.6592 77.3833C91.4045 77.0832 91.1015 76.8277 90.7628 76.6273C90.2556 76.4969 89.7203 76.5297 89.2328 76.7209C88.8728 76.8865 88.9664 77.2213 88.7504 77.6353C88.6532 77.8261 88.358 77.9341 88.2572 78.1429C88.1564 78.3517 88.214 78.6109 88.1492 78.8629C87.9943 79.2966 87.8857 79.7455 87.8252 80.2021C87.8252 80.9833 89.1248 82.8229 90.2156 83.9137C91.3064 85.0045 97.34 88.4641 97.34 88.4641L100.051 84.0469Z" fill="#FFA8A7"/>
<path d="M91.6487 77.4014C91.8827 77.7614 92.1311 77.9054 92.1635 78.215C92.1679 78.3109 92.1466 78.4063 92.1016 78.4911C92.0567 78.576 91.9898 78.6472 91.9079 78.6974C91.8146 78.5277 91.6843 78.3814 91.5266 78.2692C91.3689 78.157 91.1879 78.0818 90.9971 78.0494C91.3456 78.2486 91.6036 78.575 91.7171 78.9602C91.8205 78.9351 91.9288 78.9393 92.0299 78.9724C92.131 79.0055 92.2209 79.0661 92.2895 79.1474C92.4317 79.0713 92.5379 78.9418 92.5847 78.7874C92.6207 78.6417 92.617 78.4891 92.5739 78.3453C92.5309 78.2016 92.45 78.072 92.3399 77.9702C92.1203 77.7614 91.6487 77.4014 91.6487 77.4014Z" fill="#F28F8F"/>
<path d="M109.299 70.54C110.685 70.54 113.659 74.1148 112.1 79.54C112.1 79.54 107.204 86.5096 105.429 88.5724C104.349 89.8324 103.323 91.3624 101.055 90.4768C99.1699 89.7157 97.3735 88.7499 95.6987 87.5968C95.6987 87.5968 95.1695 84.5764 97.3619 82.7548L100.163 83.8672C100.163 83.8672 102.211 80.584 104.342 77.1316C106.812 73.1284 106.859 72.3832 109.299 70.54Z" fill="#F0F0F0"/>
<path d="M100.163 83.8811C100.04 85.1195 100.253 86.6495 100.987 87.6683C100.058 87.1679 99.2737 85.7315 99.4933 83.6543L100.163 83.8811Z" fill="#E0E0E0"/>
<path opacity="0.2" d="M150.08 86.6242C149.98 85.6666 149.515 84.763 149 83.6542C148.486 82.5454 145.663 79.1326 144.562 77.8078V77.7826C144.562 77.7826 144.295 77.365 142.762 75.529C141.228 73.693 140.962 73.3906 139.759 72.4834C138.557 71.5762 132.718 66.7234 130.702 65.2078C128.686 63.6922 127.411 62.4034 124.718 62.8714C123.922 62.8835 123.129 62.98 122.353 63.1594C121.687 63.0691 121.052 62.8223 120.499 62.4394C120.394 62.3968 120.278 62.3893 120.168 62.4178C119.881 61.9538 119.722 61.4222 119.707 60.877C119.786 60.3514 120.067 59.077 120.352 57.9466C120.661 56.7694 121.252 53.065 119.484 51.6718C119.614 50.2318 118.706 49.3066 117.454 48.637C115.956 48.0682 113.18 48.7702 111.362 49.717C109.544 50.6638 109.516 53.677 109.516 53.677C110.14 53.5968 110.758 53.468 111.362 53.2918C111.722 53.6518 112.273 54.7102 111.542 54.8578C111.222 54.9287 110.93 55.0915 110.701 55.3262C110.472 55.5609 110.317 55.8572 110.254 56.179C110.164 56.7118 111.128 56.6074 111.751 56.8378C112.374 57.0682 113.227 57.6838 113.036 58.303C112.846 58.9222 112.284 59.8906 113.17 60.5098C114.055 61.129 115.69 62.4898 114.206 64.0918C114.206 64.0918 114.822 63.9298 115.596 63.0118L116.096 64.0918C115.614 64.5929 115.246 65.1921 115.016 65.8486C114.75 66.7846 114.541 67.2886 114.541 67.2886C114.541 67.2886 115.103 68.5702 112.878 70.1002C110.653 71.6302 109.832 71.6338 108.508 74.0602C107.183 76.4866 103.828 83.1034 102.679 85.4002C101.531 87.697 101.441 88.8346 99.4391 88.3522C97.4375 87.8698 93.5027 86.149 93.4775 86.1346C94.2407 86.6098 95.0147 87.0778 95.6663 87.463C95.6663 87.517 95.6663 87.5566 95.6663 87.5566C97.3412 88.7097 99.1376 89.6754 101.023 90.4366C103.291 91.3222 104.314 89.7922 105.397 88.5322C106.571 87.1642 109.116 83.6506 110.7 81.4294V81.4546L110.747 81.361L111.874 79.7734C111.874 79.7734 113.245 84.997 113.983 87.6358C114.721 90.2746 118.429 110.143 118.663 111.986C118.897 113.829 121.133 118.574 121.813 118.956C122.494 119.337 123.775 117.653 126.58 118.556C129.384 119.46 132.581 124.817 134.19 127.142C135.799 129.468 139.748 134.065 140.602 134.799C141.455 135.534 141.534 137.039 141.804 138.597C142.074 140.156 142.632 140.621 142.574 142.287C142.517 143.954 142.124 147.385 144.482 148.559C145.487 148.807 146.804 146.798 147.463 144.674C148.248 142.154 146.344 140.487 146.876 137.751C147.283 135.642 147.211 133.431 146.628 132.816C146.397 132.597 146.096 132.469 145.778 132.456C144.22 132.056 143.096 131.811 142.621 131.484C142.504 131.427 142.376 131.398 142.247 131.398C142.117 131.398 141.989 131.427 141.872 131.484C141.804 131.43 141.739 131.376 141.682 131.322C141.469 131.131 140.926 130.472 140.285 129.677L138.74 127.488H138.679C136.822 124.824 133.87 120.936 132.35 119.028C131.284 117.672 129.941 116.557 128.412 115.759L128.174 107.587C129.179 105.701 130 104.185 130.172 103.915C132.595 101.165 133.639 98.7202 133.636 95.599C133.636 92.053 132.034 88.8634 130.691 86.6818C130.73 85.9875 130.653 85.2917 130.464 84.6226C129.761 81.3946 129.399 78.1017 129.384 74.7982V72.5158C129.384 72.5158 136.058 75.8494 137.272 76.5514C138.485 77.2534 140.047 78.7294 141.232 80.1118C142.416 81.4942 145.364 84.1114 145.505 84.8494C145.645 85.5874 144.785 86.3146 145.249 87.175C145.714 88.0354 146.38 88.2082 146.232 88.813C146.232 88.813 146.376 89.407 146.866 89.3386C146.866 89.3386 147.33 90.361 148.345 90.037C149.36 89.713 150.102 89.0398 150.185 87.931C150.167 87.589 150.138 87.1786 150.08 86.6242Z" fill="black"/>
<path opacity="0.6" d="M106.167 52.9785C105.703 52.5141 105.397 51.7653 106.085 51.4629C105.555 51.5745 105.303 52.0065 105.75 52.6653C106.033 53.061 106.435 53.3551 106.898 53.5041C106.623 53.3773 106.375 53.1989 106.167 52.9785Z" fill="#FAFAFA"/>
<path opacity="0.6" d="M106.204 51.3189C105.877 50.9407 105.657 50.4821 105.566 49.9905C105.533 49.8942 105.525 49.791 105.543 49.6907C105.561 49.5905 105.604 49.4963 105.668 49.4172C105.732 49.338 105.815 49.2764 105.909 49.2382C106.004 49.1999 106.106 49.1863 106.207 49.1985C105.93 49.1481 105.743 49.1337 105.592 49.2525C105.088 49.6449 105.656 50.8473 106.204 51.3189Z" fill="#FAFAFA"/>
<path opacity="0.6" d="M108.882 57.2871C108.371 58.1189 107.926 58.9891 107.55 59.8899L109.53 60.5235L107.899 59.7603C107.899 59.7603 108.662 57.6219 108.882 57.2871Z" fill="#FAFAFA"/>
<path opacity="0.6" d="M113.061 64.5197C112.343 64.6667 111.612 64.7403 110.879 64.7393C110.159 64.6745 109.079 64.6385 108.089 63.1229C107.099 61.6073 107.009 58.8785 107.009 58.0469C106.988 59.7821 107.096 62.0753 108.089 63.4757C108.374 63.9041 108.76 64.2555 109.214 64.4986C109.667 64.7417 110.174 64.8689 110.688 64.8689C111.49 64.8436 112.286 64.7264 113.061 64.5197Z" fill="#FAFAFA"/>
<path opacity="0.6" d="M88.5525 78.056C88.7029 77.9803 88.8308 77.8661 88.9231 77.7252C89.0153 77.5842 89.0688 77.4214 89.0781 77.2532C89.1177 76.706 89.5029 76.6232 90.0717 76.5332C89.7798 76.5339 89.491 76.5926 89.2221 76.706C88.8621 76.8716 88.9557 77.2064 88.7397 77.6204C88.6425 77.8112 88.3473 77.9192 88.2465 78.128C88.1457 78.3368 88.2033 78.596 88.1385 78.848C87.9836 79.2818 87.875 79.7306 87.8145 80.1872C87.8145 80.7488 88.4841 81.8576 89.2545 82.8404C88.4517 81.674 87.8901 80.2772 87.9477 79.928C88.0053 79.5788 88.3797 79.1252 88.3401 78.7148C88.3005 78.3044 88.3761 78.2144 88.5525 78.056Z" fill="#FAFAFA"/>
<path opacity="0.6" d="M92.4476 77.5417C92.8076 77.6173 93.3548 78.3553 93.3728 78.3769C93.0812 77.8837 92.7104 77.4445 92.408 77.3833C92.1565 77.3423 91.9 77.3423 91.6484 77.3833L91.85 77.5417C92.0463 77.4931 92.2514 77.4931 92.4476 77.5417Z" fill="#FAFAFA"/>
<path opacity="0.6" d="M141.26 141.761C141.04 139.565 140.248 138.601 139.658 137.949C139.068 137.297 139.176 137.168 139.176 136.869C138.383 136.022 137.535 135.228 136.638 134.493C134.546 132.693 128.142 127.786 123.588 123.859C121.755 122.278 120.708 121.641 120.045 120.601C119.286 119.427 118.634 117.487 118.245 115.827C117.601 113.051 114.184 93.4746 114.184 93.4746H113.54C114.019 96.9126 116.125 108.541 117.003 112.713C117.799 116.468 118.332 120.075 120.412 121.897C123.206 124.341 124.822 125.641 129.106 129.097C131.029 130.645 132.436 131.789 133.426 132.603L133.408 132.661L135.669 134.493C135.669 134.493 135.709 134.385 135.784 134.209L138.996 137.038C138.954 137.23 138.987 137.431 139.089 137.6C139.663 138.183 140.096 138.89 140.353 139.666C140.839 140.987 141.001 141.7 141.202 143.723C141.339 145.117 141.476 146.715 142.66 147.727C141.31 146.413 141.458 143.943 141.26 141.761Z" fill="#FAFAFA"/>
<path opacity="0.6" d="M145.822 88.9816C145.639 88.631 145.409 88.3075 145.138 88.0204C144.932 87.8086 144.79 87.544 144.726 87.256C144.663 86.968 144.681 86.6681 144.778 86.3896C144.941 85.9603 144.98 85.4935 144.889 85.0432C144.821 84.7264 140.789 81.0508 140.789 81.0508L140.476 81.1048C141.455 82.012 143.975 84.3448 144.223 84.64C144.295 84.7192 144.446 84.8668 144.619 85.0432C145.019 85.504 144.691 86.008 144.576 86.5588C144.482 86.9008 144.335 87.1996 144.547 87.6028C144.53 87.8839 144.54 88.1659 144.576 88.4452C144.612 88.6057 144.705 88.7479 144.837 88.8462C144.969 88.9445 145.132 88.9925 145.296 88.9816C145.332 89.1355 145.418 89.2732 145.541 89.3734C145.663 89.4736 145.815 89.5307 145.973 89.536C145.804 89.4814 145.651 89.3877 145.526 89.2626C145.401 89.1374 145.307 88.9844 145.253 88.816C145.253 88.816 145.098 88.816 144.893 88.4812C144.762 88.2788 144.709 88.0355 144.745 87.7972L145.822 88.9816Z" fill="#FAFAFA"/>
<path d="M99.1401 48.8484C99.1186 48.8165 99.1037 48.7807 99.0963 48.743C99.0889 48.7052 99.0891 48.6664 99.0969 48.6288C99.1027 48.5907 99.1167 48.5542 99.1378 48.5219C99.1589 48.4896 99.1867 48.4622 99.2193 48.4416L100.35 47.6712C100.38 47.6486 100.415 47.6327 100.453 47.6247C100.49 47.6166 100.528 47.6165 100.566 47.6244C100.604 47.6308 100.641 47.645 100.674 47.666C100.706 47.6871 100.735 47.7145 100.756 47.7468L101.376 48.6504C101.418 48.7151 101.434 48.794 101.419 48.87C101.413 48.9086 101.399 48.9456 101.378 48.9785C101.357 49.0114 101.329 49.0394 101.296 49.0608L100.166 49.8312C100.135 49.8535 100.099 49.8688 100.061 49.8763C100.023 49.8837 99.9841 49.8831 99.9465 49.8744C99.9089 49.8681 99.873 49.8544 99.8408 49.834C99.8087 49.8136 99.781 49.7869 99.7593 49.7556L99.1401 48.8484ZM95.8029 43.9632C95.7808 43.9316 95.7656 43.8958 95.7581 43.8579C95.7507 43.8201 95.7512 43.7812 95.7597 43.7436C95.7651 43.7058 95.7785 43.6695 95.799 43.6372C95.8195 43.605 95.8466 43.5774 95.8785 43.5564L97.0089 42.7824C97.0408 42.7611 97.0767 42.7463 97.1144 42.7389C97.1521 42.7315 97.1908 42.7316 97.2285 42.7392C97.2662 42.745 97.3023 42.7586 97.3345 42.7791C97.3667 42.7995 97.3943 42.8264 97.4157 42.858L100.058 46.7244C100.08 46.7563 100.094 46.7921 100.102 46.8298C100.109 46.8675 100.109 46.9064 100.101 46.944C100.095 46.9821 100.081 47.0186 100.06 47.0509C100.039 47.0832 100.011 47.1105 99.9789 47.1312L98.8521 47.9016C98.8207 47.9241 98.785 47.9398 98.7472 47.9479C98.7094 47.9559 98.6703 47.9561 98.6325 47.9484C98.5941 47.942 98.5573 47.9278 98.5245 47.9068C98.4917 47.8857 98.4636 47.8582 98.4417 47.826L95.8029 43.9632Z" fill="#EF4444"/>
<path d="M98.8626 53.8701C98.7926 53.838 98.7382 53.7794 98.7112 53.7072C98.6842 53.6351 98.6869 53.5551 98.7186 53.4849L99.2911 52.2393C99.3066 52.204 99.3294 52.1723 99.3579 52.1462C99.3864 52.1202 99.42 52.1004 99.4566 52.0881C99.4919 52.0731 99.5299 52.0653 99.5682 52.0653C99.6066 52.0653 99.6446 52.0731 99.6798 52.0881L100.677 52.5489C100.712 52.5645 100.744 52.5872 100.77 52.6158C100.796 52.6443 100.816 52.6779 100.828 52.7145C100.843 52.7498 100.851 52.7878 100.851 52.8261C100.851 52.8645 100.843 52.9024 100.828 52.9377L100.259 54.1797C100.226 54.2497 100.167 54.3039 100.094 54.3309C100.059 54.3462 100.021 54.3541 99.9822 54.3541C99.9439 54.3541 99.9059 54.3462 99.8706 54.3309L98.8626 53.8701ZM93.4842 51.3969C93.4489 51.382 93.4174 51.3593 93.3918 51.3307C93.3663 51.3021 93.3475 51.2681 93.3366 51.2313C93.3207 51.1963 93.3125 51.1582 93.3125 51.1197C93.3125 51.0812 93.3207 51.0432 93.3366 51.0081L93.9054 49.7661C93.9389 49.6961 93.9983 49.6419 94.0711 49.6149C94.1063 49.5997 94.1443 49.5918 94.1827 49.5918C94.221 49.5918 94.259 49.5997 94.2942 49.6149L98.5458 51.5733C98.5815 51.5875 98.6135 51.6093 98.6396 51.6374C98.6658 51.6654 98.6854 51.6988 98.697 51.7353C98.713 51.771 98.7213 51.8096 98.7213 51.8487C98.7213 51.8878 98.713 51.9265 98.697 51.9621L98.1246 53.2041C98.1093 53.239 98.087 53.2704 98.0592 53.2964C98.0313 53.3224 97.9985 53.3424 97.9626 53.3553C97.9268 53.3705 97.8882 53.3783 97.8492 53.3783C97.8103 53.3783 97.7717 53.3705 97.7358 53.3553L93.4842 51.3969Z" fill="#EF4444"/>
</svg>
